<svg width="70" height="60" viewBox="0 0 70 60" fill="none" xmlns="http://www.w3.org/2000/svg">
<path fill-rule="evenodd" clip-rule="evenodd" d="M12.9271 13.9583C12.9271 11.9222 13.8084 9.96955 15.3771 8.52982C16.9457 7.09008 19.0733 6.28125 21.2917 6.28125H45.5855C46.431 6.28125 47.2643 6.4661 48.0164 6.82049C48.7686 7.17488 49.418 7.68862 49.9107 8.31917L59.0753 20.0358C59.7232 20.8677 60.073 21.8643 60.073 22.8833V53.0417C60.073 55.0778 59.1917 57.0305 57.623 58.4702C56.0544 59.9099 53.9268 60.7188 51.7084 60.7188H21.2917C19.0733 60.7188 16.9457 59.9099 15.3771 58.4702C13.8084 57.0305 12.9271 55.0778 12.9271 53.0417V13.9583ZM21.2917 10.4688C19.193 10.4688 17.4896 12.0321 17.4896 13.9583V53.0417C17.4896 54.9679 19.193 56.5313 21.2917 56.5313H51.7084C53.8071 56.5313 55.5105 54.9679 55.5105 53.0417V24.8375H45.625C45.02 24.8375 44.4398 24.6169 44.012 24.2242C43.5841 23.8316 43.3438 23.299 43.3438 22.7437V10.4688H21.2917Z" fill="white"/>
<path d="M45.8866 36.9034C45.6994 37.1184 45.4679 37.2974 45.2052 37.4302C44.9426 37.563 44.654 37.647 44.3559 37.6773C44.0579 37.7076 43.7563 37.6838 43.4683 37.607C43.1803 37.5302 42.9116 37.4021 42.6777 37.23L38.7843 34.3657V43.9691C38.7843 44.5244 38.544 45.0569 38.1162 45.4496C37.6884 45.8422 37.1081 46.0628 36.5031 46.0628C35.8981 46.0628 35.3178 45.8422 34.89 45.4496C34.4622 45.0569 34.2218 44.5244 34.2218 43.9691V34.3657L30.3224 37.23C29.8497 37.5769 29.2462 37.7372 28.6447 37.6757C28.0432 37.6141 27.4929 37.3358 27.115 36.902C26.737 36.4681 26.5624 35.9142 26.6294 35.3621C26.6964 34.8101 26.9997 34.305 27.4724 33.9582L35.0674 28.3804C35.4684 28.0839 35.9669 27.9205 36.4818 27.917H36.5061C37.0536 27.917 37.5525 28.0957 37.9448 28.3916L45.5308 33.9582C45.765 34.13 45.9601 34.3425 46.1048 34.5836C46.2495 34.8246 46.341 35.0895 46.374 35.363C46.4071 35.6366 46.381 35.9134 46.2974 36.1777C46.2138 36.442 46.0742 36.6886 45.8866 36.9034Z" fill="white"/>
</svg>
