<svg width="43" height="49" viewBox="0 0 43 49" fill="none" xmlns="http://www.w3.org/2000/svg">
<path fill-rule="evenodd" clip-rule="evenodd" d="M0 5.25C0 3.85761 0.485417 2.52226 1.34946 1.53769C2.21351 0.553123 3.38541 0 4.60736 0L26.1084 0C27.3303 0 28.5022 0.553123 29.3663 1.53769C30.2303 2.52226 30.7157 3.85761 30.7157 5.25V12.0365C29.4694 13.174 28.6608 14.8197 28.4612 16.625H17.6615C16.754 16.625 15.8553 16.8287 15.0168 17.2244C14.1783 17.6202 13.4165 18.2003 12.7747 18.9315C12.133 19.6628 11.6239 20.5309 11.2766 21.4864C10.9293 22.4418 10.7505 23.4658 10.7505 24.5C10.7505 25.5342 10.9293 26.5582 11.2766 27.5136C11.6239 28.4691 12.133 29.3372 12.7747 30.0685C13.4165 30.7997 14.1783 31.3798 15.0168 31.7756C15.8553 32.1713 16.754 32.375 17.6615 32.375H28.4612C28.6608 34.1803 29.4694 35.826 30.7157 36.9635V43.75C30.7157 45.1424 30.2303 46.4777 29.3663 47.4623C28.5022 48.4469 27.3303 49 26.1084 49H4.60736C3.38541 49 2.21351 48.4469 1.34946 47.4623C0.485417 46.4777 0 45.1424 0 43.75L0 5.25ZM33.6737 15.0745C33.2527 15.2732 32.8928 15.6097 32.6397 16.0414C32.3866 16.4732 32.2515 16.9808 32.2515 17.5V21H17.6615C16.8469 21 16.0656 21.3687 15.4896 22.0251C14.9136 22.6815 14.59 23.5717 14.59 24.5C14.59 25.4283 14.9136 26.3185 15.4896 26.9749C16.0656 27.6313 16.8469 28 17.6615 28H32.2515V31.5C32.2519 32.0188 32.3872 32.5259 32.6404 32.9572C32.8936 33.3884 33.2532 33.7245 33.6739 33.923C34.0946 34.1215 34.5575 34.1735 35.0041 34.0724C35.4507 33.9713 35.861 33.7216 36.1831 33.355L42.3263 26.355C42.7577 25.8628 43 25.1956 43 24.5C43 23.8044 42.7577 23.1372 42.3263 22.645L36.1831 15.645C35.8612 15.2779 35.451 15.0277 35.0043 14.9262C34.5576 14.8247 34.0946 14.8763 33.6737 15.0745Z" fill="white"/>
</svg>
