<svg width="19" height="10" viewBox="0 0 19 10" fill="none" xmlns="http://www.w3.org/2000/svg">
<path fill-rule="evenodd" clip-rule="evenodd" d="M10.7881 9.45067C10.5358 9.67068 10.1848 9.80265 9.81252 9.81756C9.4402 9.83246 9.07697 9.72908 8.80271 9.53015L0.529178 3.52728C0.389681 3.42958 0.276265 3.31056 0.195549 3.17719C0.114833 3.04381 0.0684368 2.89874 0.0590594 2.75045C0.04968 2.60215 0.0775132 2.4536 0.140932 2.31345C0.204351 2.17331 0.30209 2.04438 0.42844 1.93419C0.554789 1.824 0.70722 1.73476 0.876841 1.67167C1.04646 1.60858 1.22988 1.57291 1.41638 1.56673C1.60288 1.56056 1.78874 1.58401 1.96311 1.63571C2.13748 1.68741 2.29687 1.76633 2.43197 1.86786L9.6715 7.12051L16.3326 1.31137C16.5868 1.09724 16.9356 0.970417 17.3039 0.958225C17.6722 0.946032 18.0305 1.04944 18.3016 1.24619C18.5728 1.44293 18.7351 1.71727 18.7536 2.01011C18.7722 2.30294 18.6454 2.59085 18.4006 2.81183L10.7881 9.45067Z" fill="black"/>
</svg>
