<svg width="28" height="32" viewBox="0 0 28 32" fill="none" xmlns="http://www.w3.org/2000/svg">
<path fill-rule="evenodd" clip-rule="evenodd" d="M18.3249 15.0576C18.5436 15.3076 18.6665 15.6467 18.6665 16.0002C18.6665 16.3538 18.5436 16.6929 18.3249 16.9429L11.7251 24.4856C11.6175 24.6129 11.4887 24.7145 11.3464 24.7844C11.204 24.8543 11.051 24.891 10.896 24.8926C10.7411 24.8941 10.5875 24.8604 10.4441 24.7933C10.3007 24.7263 10.1705 24.6273 10.0609 24.5021C9.95141 24.3769 9.86478 24.228 9.80612 24.0642C9.74745 23.9003 9.71794 23.7247 9.71928 23.5477C9.72063 23.3707 9.75281 23.1957 9.81396 23.033C9.8751 22.8704 9.96398 22.7232 10.0754 22.6002L15.8504 16.0002L10.0754 9.40024C9.86289 9.14877 9.7453 8.81197 9.74795 8.46237C9.75061 8.11278 9.87331 7.77836 10.0896 7.53115C10.3059 7.28394 10.5985 7.14371 10.9044 7.14068C11.2103 7.13764 11.505 7.27203 11.7251 7.51491L18.3249 15.0576Z" fill="black"/>
</svg>
