<svg width="50" height="49" viewBox="0 0 50 49" fill="none" xmlns="http://www.w3.org/2000/svg">
<path fill-rule="evenodd" clip-rule="evenodd" d="M21.778 9.25024C24.4361 10.9732 26.3761 13.5887 27.2408 16.6152C28.1055 19.6417 27.8368 22.8756 26.4841 25.7215C28.8993 27.5624 31.8393 28.6029 34.8862 28.695C37.9331 28.7871 40.9317 27.9261 43.456 26.2344C45.9802 24.5428 47.9015 22.1065 48.9468 19.272C49.9921 16.4374 50.1082 13.3488 49.2786 10.4452C48.449 7.54161 46.7159 4.97074 44.3257 3.09805C41.9355 1.22535 39.0098 0.146141 35.9644 0.0138114C32.919 -0.118518 29.909 0.70277 27.3622 2.36093C24.8154 4.01909 22.8614 6.42975 21.778 9.25024ZM35.3347 13.0238C36.5684 13.0238 37.5697 14.015 37.5697 15.2362V21.5869C37.5697 22.1736 37.3343 22.7364 36.9151 23.1513C36.496 23.5662 35.9275 23.7993 35.3347 23.7993C34.742 23.7993 34.1735 23.5662 33.7543 23.1513C33.3352 22.7364 33.0997 22.1736 33.0997 21.5869V15.2362C33.0997 14.015 34.101 13.0238 35.3347 13.0238ZM32.7135 7.43072C32.7135 9.09802 34.1081 9.83079 35.0915 9.93698L35.3419 9.95114C36.3181 9.95114 37.9667 9.24316 37.9667 7.43072C37.9667 5.75988 36.572 5.02711 35.5886 4.92092L35.3383 4.90676C34.362 4.90676 32.7135 5.61474 32.7135 7.43072ZM14.5366 28.8048C15.697 28.828 16.8505 28.6218 17.9295 28.1983C19.0085 27.7748 19.9913 27.1424 20.8203 26.3382C21.6493 25.534 22.3079 24.5742 22.7575 23.5149C23.2071 22.4556 23.4387 21.3181 23.4387 20.1691C23.4387 19.0201 23.2071 17.8827 22.7575 16.8234C22.3079 15.7641 21.6493 14.8042 20.8203 14C19.9913 13.1958 19.0085 12.5635 17.9295 12.1399C16.8505 11.7164 15.697 11.5102 14.5366 11.5335C12.2535 11.5792 10.0795 12.5092 8.4812 14.1237C6.88291 15.7382 5.98769 17.9086 5.98769 20.1691C5.98769 22.4296 6.88291 24.6 8.4812 26.2146C10.0795 27.8291 12.2535 28.759 14.5366 28.8048ZM1.92129e-05 46.0725C-0.00591236 42.4589 1.36179 38.9755 3.83131 36.3143C6.30084 33.6532 9.69141 32.0092 13.3292 31.709C16.967 31.4089 20.5857 32.4746 23.4662 34.6944C26.3466 36.9142 28.278 40.1255 28.8764 43.6901H47.318C48.0293 43.6901 48.7115 43.9698 49.2145 44.4677C49.7174 44.9656 50 45.6409 50 46.3451C50 47.0492 49.7174 47.7245 49.2145 48.2224C48.7115 48.7203 48.0293 49 47.318 49H2.75356C2.07455 48.9998 1.42089 48.7447 0.924453 48.2861C0.428018 47.8276 0.125769 47.1997 0.0786918 46.5291C0.0285373 46.382 0.00316655 46.2277 0.00359524 46.0725H1.92129e-05Z" fill="white"/>
</svg>
